<svg xmlns="http://www.w3.org/2000/svg" xmlns:xlink="http://www.w3.org/1999/xlink" version="1.0" x="0px" y="0px" width="100px" height="100px" viewBox="0 0 100 100" enable-background="new 0 0 100 100" xml:space="preserve">
<g id="Captions">
</g>
<g id="Your_Icon">
	<g>
		<g>
			<g>
				<path d="M48.475,85.589l-1.194-0.678l-0.363-0.808l0.057-0.268l-0.83-0.614l-1.702,0.981l-1.121-0.584l-0.033-0.366      l-4.276-1.836l-0.372-0.41l-0.006,0.004l0.104,0.126l-0.228,1.145l-1.194,0.625l-0.682,0.008l-0.819-0.408l-2.528,0.66      l-0.727-0.202l-1.221-1.252l-0.163-0.794l4.167-10.794l-8.524-3.041l-0.495-0.773l0.062-0.697l-1.497-1.413l-0.233-0.488      L23.59,49.967l0.271-0.638l0.901-0.74l-0.782-5.168l0.588-0.846l4.188-0.876l1.57-3.113l-0.22-0.55l-0.62,0.067l-0.831-0.773      l0.069-1.87l0.735-0.722l0.948-0.018l0.701-5.087l-0.249-0.056l-0.582-0.663l-0.115-1.251l0.493-0.554l0.068-0.648l0.531-0.64      l3.305-0.988l0.525,0.036l2.123,0.965l0.445,0.651l0.985,0.011l0.701,0.647l0.073-0.272L38.79,26.57l-0.398-0.876l0.374-1.354      l0.743-0.55l1.874,0.051l-0.347-2.72l-0.972,0.214l-0.793-1.136l1.364-2.133l-1.219-2.344l0.8-1.083l7.178,1.307l0.604,0.87      l-0.285,1.593l0.738,0.39l0.053-0.063l0.676-0.258l4.521,0.626l0.409,1.292l-0.186,0.172v0.981l-0.306,0.604l-0.714,0.524      l0.734-0.217l0.726,0.172l0.338,0.317l0.354-0.669l0.001,0l-0.073-0.176l7.94-3.725l0.849,0.149l2.152,2.154l1.121-0.417      l0.999,0.841l-0.178,0.946l1.462,2.209l1.187,0.236l0.57,0.515l1.055,3.549l-0.056,0.687l-1.44,4.137l5.748,12.903l0.017,0.568      l-1.66,4.439l-0.938,0.449l-1.682-0.557l-0.108,0.558l-0.313,0.477l-10.131,6.918l-0.184,0.04l1.218,1.438l-0.102,1.068      l-0.154,0.124l0.101,0.54l-0.061,0.155l8.336,9.179l-0.255,1.191l-1.896,0.828l0.156,0.754l-0.345,0.793l-3.243,1.975      l0.867,3.149l0.566,0.109l0.318,0.937l-0.229,0.816l-1.587,1.328l-0.868,0.067l-2.611-1.573l-0.735,0.728l-0.547,0.217      l-2.702-0.071l-1.347,1.366l-0.574,0.223l-1.889-0.101l-0.663-0.487l-0.271-0.729l-2.424,0.087l0.001,0.687l-0.191,0.503      l-0.86,0.96L48.475,85.589z M48.498,83.877l0.191,0.109l0.265-0.296l-0.003-1.602l1.29-0.522l0.213,0.221l2.912-0.104      l0.729,0.488l0.288,0.775l1.061,0.057l1.338-1.357l0.554-0.224l2.708,0.071l0.923-0.913l0.914-0.109l2.652,1.598l0.679-0.567      l-0.469-0.104l-1.189-4.321l0.333-0.84l3.274-1.994l-0.172-0.831l0.435-0.84l1.496-0.653l-7.945-8.749l-0.145-0.775l0.061-0.155      l-0.081-0.089l0.084-1.089l0.077-0.062l-1.917-2.264l0.702-1.223l1.229,0.216l9.624-6.572l0.212-1.092l0.972-0.569l1.807,0.598      l1.3-3.475l-5.744-12.894l-0.022-0.552l1.5-4.308l0.007-0.222l-0.854-2.76l-1.055-0.209l-0.479-0.322l-1.802-2.723l-0.102-0.501      l-0.352,0.131l-0.792-0.173l-2.12-2.122l-6.79,3.185l-0.725,1.372l-1.176,0.197l-0.741-0.695l-1.521,0.45L51.39,24.28      l-0.738-0.738l0.086-1.135l1.688-1.239V20.44l-3.041-0.421l-0.444,0.525l-0.959,0.159l-0.435-0.261l-0.25-0.45l-0.583-0.049      l-0.398-0.396l-0.21-0.665l0.286-1.597l-4.937-0.899l0.712,1.371l-0.033,0.75l-0.622,0.973l0.005-0.001l0.905,0.638l0.561,4.402      l-0.765,0.844l-2.162-0.059l-0.05,0.183l0.62,0.297l0.4,0.871l-0.473,1.763l-0.667,0.553l-1.098,0.085l-0.805-0.679      l-0.014-0.144l-0.038,0.249l-1.35,0.324l-0.47-0.65l0.191-0.696l-0.075-0.426l-1.507-0.685l-2.557,0.765l-0.059,0.547      l-0.402,0.371l0.019,0.2l0.836,0.189l0.272,1.341l-0.249,0.179l-0.774,5.619l-0.729,0.647l-0.88,0.017l-0.011,0.294l0.324-0.035      l0.777,0.467l0.557,1.394l-0.027,0.616l-1.886,3.737l-0.516,0.396l-3.848,0.805l0.74,4.889l-0.266,0.692l-0.929,0.762      l1.014,13.066l1.552,1.464l0.232,0.613l-0.044,0.481l8.702,3.104l0.448,0.977L32.749,81.01l0.58,0.595l2.378-0.621l0.523,0.054      l0.729,0.363l0.031-0.017l-0.03-0.036l0.144-1.094l0.898-0.634l0.505-0.133l0.791,0.077l0.669,0.63l4.324,1.856l0.259,0.358      l1.271-0.732l0.821,0.048l1.611,1.192l0.288,0.758L48.498,83.877z"/>
			</g>
		</g>
	</g>
</g>
</svg>