<svg xmlns="http://www.w3.org/2000/svg" xmlns:xlink="http://www.w3.org/1999/xlink" version="1.1" id="Ebene_1" x="0px" y="0px" width="100px" height="100px" viewBox="0 0 100 100" enable-background="new 0 0 100 100" xml:space="preserve">
<path fill="#000000" d="M80.3 80.2C72.6 87.9 62 92.7 50.2 92.7c-11.8 0-22.4-4.8-30.1-12.5C19 79.1 17.9 78 17 76.7 c0.1 0.1 0.3 0.2 0.4 0.3c1.1 0.5 1.6 1.4 2.2 2.4c1.8 1.2 4.1 3.2 6.4 3.5c0-3-1.7-1.9-2.8-4.2c-2 0-2.2-1.3-4-1.7 c-1.1-0.3-1.2-1.9-2-2.9c-1.3-1.7-0.3-4.7-0.3-7.4c-2.5-1.7-4.3-4.7-5.1-7.4c-0.4-1.5-2-2.8-2.2-4.7c-0.2-1.8 0.4-4.2-0.6-5.8 c-1.3-2-0.4-1.9 0.9-2.6c-0.4-1.1-0.7-2.1-1.5-2.5c0.6-4.1 1.8-8 3.5-11.6h0.8c0 1.4 0 1.8 0.7 2.8c3.4 0 2.2-3.1 4.2-4.2 c1-1.4 1.5-1.8 2.8-2.8c0-0.2 0-0.5 0-0.7c0.6-0.6 0.9-0.7 1.4-1.4h-2.8c0.5-0.7-0.1-0.9 0.7-1.4c2.4 0 3.3 0.2 5-1.4 c0-0.2 0-0.5 0-0.7c0.6-0.4 0.3-0.3 0.7-0.7c0.2 0 0.5 0 0.7 0c0.4-0.6 0.2-0.3 0.7-0.7c0-0.2 0-0.5 0-0.7c0.2 0 0.5 0 0.7 0 c0-0.5 0-0.9 0-1.4c0.2 0 0.5 0 0.7 0c0.7-1 0.7-1.6 0.7-2.8c1.3 0.8 2.8 0.7 4.2 0.7c0.9-0.6 0.8-0.6 1.4-1.4c1 0 2-0.2 2.8-0.7 c0.4 0 0.8 0 1.2-0.1c0.2 0.4 0.4 0.8 0.3 1.3c0.5 0.7 2 0.2 2.7 0.2c1.2-0.8-0.2-2.4 0.4-2.7c1-0.4 1.3-0.8 2.4-0.9 c1.7-2.6 3.6-0.7 5.7-0.7c-0.8-1.1-0.7-2.6-1.3-3.9c0.5 0 1 0 1.5 0c2.2 0 4.5 0.2 6.6 0.5C55 8.3 52.8 8 51.4 8 c0 2.8 0.8 2.1 3.5 2.1c0 2.9-8.7 5.7-6.4 9.2c4.6 0-0.8 2.9-1 3.4c-1.3 2.2-2.6-3.6-3.4-3.8c-2.4-0.6-1.4 4.8-1.2 5.8 c0.1 0.3-1.1 1-0.8 1.6c0.1 0.2 1.2 1.2 1.5 1.5c-1.5 0-0.2 1-1.3 1.5c-0.8 0.3-2.1-0.1-2.9-0.1c0.8-1 1.7-0.7 2.8-0.7 c0-1-3.1-1-4.2-1.4c0.1 2.7-0.7 4.8-0.7 7.8h1.4c0 1.3-1.7 5.1-3.6 5.1c-0.8 0-1 1.7-0.7 2c-0.4-0.4-1.6 0.4-2 0.7 c0 0.2 0 0.5 0 0.7c-1.2 1.2-2.3 2-2.8 3.5c-0.2 0-0.5 0-0.7 0c-0.2 4.2-3.2 8.9 0.6 12.8c1.8 1.8 2.9 3.2 4.7 4.7 c3 2.3 8-1.7 11.2 0.5c1.9 1.3 4.2 0.5 5 3.7c0.3 1.4 0.6 3 1.9 3.8c0 1.9 1.3 2 1.4 3.7c0.1 0.7 0.7 2.1 0.7 3.3 c-2.4 0-0.5 5-1.4 6.4c-1.4 0-0.6 2.1 2.8 2.1c-0.9 1.4 2.9 2.9 3.8 2.8c1.9-0.3 3.5-1 5.5-1.2c2.4-0.3 1.6-1 3.4-2.3v-1.4 c2.5 0 2.6-2.1 3.3-3.8c0.3-0.7 3.9-3.2 4.5-3.2c1.4-2.1 0.7-5.9 0.7-8.5c0.4-0.3 3.3-4 3.2-4.2c1.1 2.4 6.7-1.5 1-1.5 c0.8-1.3 5-1.2 5.4-2.8c1.1-3.7-5-7.7-2.6-11.3c1.6-0.1 2.4-2.6 2.9-3.9c1.1-2.9-1.2-3.2-2.2-5.3c-0.2 0-2.1 0.8-1.8 1.3 c-0.2-0.4-1.5-1.6-1.4-1.3c-0.1-0.2-0.2-0.5-0.3-0.7c1.9 0 3.5-0.7 5.7-0.7c0 0.8 2.5 1.5 3.2 2.7c0.8 1.3 0.7 2.2 1 3.6 c-1.8 0-1.4 0-2.1 1.4h1.4c0 1.7-0.7 1.4-2.1 1.4c0.1 1.4 0.1 1.3 1.4 1.4v0.7c1.4 0 2.2-0.6 3.2-0.2C92.5 62.4 87.8 72.7 80.3 80.2 M15.1 74.3c0.2 0.3 0.4 0.6 0.6 0.9C15.5 74.9 15.3 74.6 15.1 74.3 M57.2 11c0-0.4 2.5-0.1 2.7-0.1c1.2-1.8 1.8 1.3 0.7 1.4 C59.9 12.3 57.1 12.5 57.2 11 M54.9 29.9c0.6 0.3 1.1 0.8 1.4 1.4c-0.9-0.6-3.1 0.1-3.3-1.4C52.9 29.3 54.7 29.8 54.9 29.9 M55.5 16 c0.5 0.3-0.7 1.8-1.3 1.2C53.7 16.6 55 15.6 55.5 16 M55.6 18.6c0.7 0.5 0.9-0.1 1.4 0.7c-0.8 0.5-0.2 0.7-0.7 1.4h-2.8 C53.5 19.5 54.4 18.6 55.6 18.6 M50.7 20.7V20c1.1 0.8 1.4-0.4 1.4 1.4C51.3 20.9 51.2 21.6 50.7 20.7 M45 32 c1.5-0.9 6.4-3.8 6.4-0.7c0.9 0 1.6 0.6 2.1 1.4c2.7 0 0.7 0.6 2.1 1.4c0.6-0.8 0.9-3.9 2.1-2.1c1.1 1.7 1.2 2.9 3.6 1.5 c0.9-0.5 2 1.5 2.9 1.7c1.1 0.3 2.3 0.1 3.4 0.3v-0.7c1.8 1.3 4 4.2 0 4.2c-1.5 2.3-5.8 0-7.8 0c0 2.7-3.7 0.7-4.9 0.4 c-1.7-0.5-2.6-0.5-3.3-2.3c-0.8-2.2-2.3-1.8-4.9-1.9c-1.3-0.1-3-0.3-3.2 1c0 0.1-2.7 0.1-2.9 0.1c0.6-0.9 1.4 0 2.1-0.7 c0-1.1 0.7-0.8 0.7-2.1c0-1.4 0.8 0 1.4-0.7C45 32.5 45 32.3 45 32 M76.6 51.1c-0.9-1.2-6.7-6.3-4.7-7.7c0.3 0.4 0.5 0.9 0.7 1.4 c1.5 0 1.7 2.3 2.1 3.5c0.5 0.4 1.1 0.8 1.4 1.4h0.7C76.8 49.8 76.4 50.9 76.6 51.1 M70.5 10.3c0-0.1 0-0.1 0-0.2 c-0.1 0-0.3 0-0.4 0c-0.3-0.2-0.6-0.3-1-0.5c0-0.1 0-0.1 0-0.2c-0.1 0-0.4-0.1-0.8-0.1c-1.6-0.7-3.3-1.4-5.1-1.9 c-0.2-0.1-0.5-0.2-0.7-0.2c-3.9-1.1-8-1.7-12.3-1.7c-24.7 0-44.7 20-44.7 44.7c0 24.7 20 44.7 44.7 44.7c24.7 0 44.7-20 44.7-44.7 C94.9 32.8 85 17.7 70.5 10.3"/>
</svg>